<svg width="249" height="54" viewBox="0 0 249 54" fill="none" xmlns="http://www.w3.org/2000/svg">
<path d="M0.225 53V0.499996H22.95C27.65 0.499996 31.7 1.275 35.1 2.825C38.5 4.325 41.125 6.5 42.975 9.35C44.825 12.2 45.75 15.6 45.75 19.55C45.75 23.45 44.825 26.825 42.975 29.675C41.125 32.475 38.5 34.625 35.1 36.125C31.7 37.625 27.65 38.375 22.95 38.375H6.975L12.375 33.05V53H0.225ZM33.6 53L20.475 33.95H33.45L46.725 53H33.6ZM12.375 34.4L6.975 28.7H22.275C26.025 28.7 28.825 27.9 30.675 26.3C32.525 24.65 33.45 22.4 33.45 19.55C33.45 16.65 32.525 14.4 30.675 12.8C28.825 11.2 26.025 10.4 22.275 10.4H6.975L12.375 4.625V34.4ZM78.7014 53.9C71.2514 53.9 65.4264 51.825 61.2264 47.675C57.0264 43.525 54.9264 37.6 54.9264 29.9V0.499996H67.0764V29.45C67.0764 34.45 68.1014 38.05 70.1514 40.25C72.2014 42.45 75.0764 43.55 78.7764 43.55C82.4764 43.55 85.3514 42.45 87.4014 40.25C89.4514 38.05 90.4764 34.45 90.4764 29.45V0.499996H102.476V29.9C102.476 37.6 100.376 43.525 96.1764 47.675C91.9764 51.825 86.1514 53.9 78.7014 53.9ZM124.479 53V10.4H107.679V0.499996H153.429V10.4H136.629V53H124.479ZM150.429 53L173.829 0.499996H185.829L209.304 53H196.554L177.354 6.65H182.154L162.879 53H150.429ZM162.129 41.75L165.354 32.525H192.354L195.654 41.75H162.129ZM239.542 53.075C238.292 53.075 237.133 52.85 236.067 52.4C235 51.95 234.067 51.325 233.267 50.525C232.467 49.7083 231.842 48.7667 231.392 47.7C230.958 46.6333 230.742 45.4833 230.742 44.25C230.742 43.0167 230.967 41.8667 231.417 40.8C231.867 39.7333 232.492 38.8 233.292 38C234.092 37.1833 235.025 36.55 236.092 36.1C237.175 35.65 238.342 35.425 239.592 35.425C240.842 35.425 242 35.65 243.067 36.1C244.15 36.5333 245.083 37.15 245.867 37.95C246.667 38.75 247.283 39.6833 247.717 40.75C248.167 41.8 248.392 42.95 248.392 44.2C248.392 45.45 248.167 46.6167 247.717 47.7C247.267 48.7667 246.633 49.7083 245.817 50.525C245.017 51.325 244.083 51.95 243.017 52.4C241.95 52.85 240.792 53.075 239.542 53.075ZM239.542 51.45C240.558 51.45 241.5 51.2667 242.367 50.9C243.233 50.5167 243.992 50 244.642 49.35C245.292 48.7 245.792 47.9333 246.142 47.05C246.508 46.1667 246.692 45.2167 246.692 44.2C246.692 43.1833 246.508 42.2417 246.142 41.375C245.792 40.4917 245.3 39.7333 244.667 39.1C244.05 38.45 243.308 37.95 242.442 37.6C241.575 37.2333 240.625 37.05 239.592 37.05C238.575 37.05 237.625 37.2333 236.742 37.6C235.875 37.9667 235.117 38.4833 234.467 39.15C233.833 39.8 233.342 40.5583 232.992 41.425C232.642 42.2917 232.467 43.2333 232.467 44.25C232.467 45.2667 232.642 46.2167 232.992 47.1C233.342 47.9667 233.833 48.725 234.467 49.375C235.1 50.025 235.85 50.5333 236.717 50.9C237.583 51.2667 238.525 51.45 239.542 51.45ZM239.867 49.3C238.833 49.3 237.917 49.0917 237.117 48.675C236.317 48.2417 235.683 47.6417 235.217 46.875C234.767 46.1083 234.542 45.2333 234.542 44.25C234.542 43.2667 234.767 42.3917 235.217 41.625C235.683 40.8583 236.317 40.2667 237.117 39.85C237.917 39.4167 238.833 39.2 239.867 39.2C240.867 39.2 241.742 39.4167 242.492 39.85C243.242 40.2667 243.792 40.8417 244.142 41.575L241.892 42.9C241.642 42.4833 241.342 42.1833 240.992 42C240.658 41.8167 240.275 41.725 239.842 41.725C239.408 41.725 239.008 41.825 238.642 42.025C238.292 42.225 238.008 42.5167 237.792 42.9C237.575 43.2833 237.467 43.7333 237.467 44.25C237.467 44.7667 237.575 45.2167 237.792 45.6C238.008 45.9833 238.292 46.275 238.642 46.475C239.008 46.675 239.408 46.775 239.842 46.775C240.275 46.775 240.658 46.6833 240.992 46.5C241.342 46.3167 241.642 46.0167 241.892 45.6L244.142 46.9C243.792 47.6333 243.242 48.2167 242.492 48.65C241.742 49.0833 240.867 49.3 239.867 49.3Z" fill="black"/>
</svg>
