<svg width="298" height="53" viewBox="0 0 298 53" fill="none" xmlns="http://www.w3.org/2000/svg">
<path d="M0.85 53V45.125L33.325 5.975L34.825 10.4H1.45V0.499996H45.625V8.375L13.225 47.525L11.725 43.1H46.75V53H0.85ZM65.7174 21.65H90.9924V31.1H65.7174V21.65ZM66.6174 43.25H95.1924V53H54.5424V0.499996H94.2174V10.25H66.6174V43.25ZM104.86 53V0.499996H130.51C137.11 0.499996 142.06 1.75 145.36 4.25C148.71 6.75 150.385 10.05 150.385 14.15C150.385 16.9 149.71 19.3 148.36 21.35C147.01 23.35 145.16 24.9 142.81 26C140.46 27.1 137.76 27.65 134.71 27.65L136.135 24.575C139.435 24.575 142.36 25.125 144.91 26.225C147.46 27.275 149.435 28.85 150.835 30.95C152.285 33.05 153.01 35.625 153.01 38.675C153.01 43.175 151.235 46.7 147.685 49.25C144.135 51.75 138.91 53 132.01 53H104.86ZM116.935 43.85H131.11C134.26 43.85 136.635 43.35 138.235 42.35C139.885 41.3 140.71 39.65 140.71 37.4C140.71 35.2 139.885 33.575 138.235 32.525C136.635 31.425 134.26 30.875 131.11 30.875H116.035V22.025H129.01C131.96 22.025 134.21 21.525 135.76 20.525C137.36 19.475 138.16 17.9 138.16 15.8C138.16 13.75 137.36 12.225 135.76 11.225C134.21 10.175 131.96 9.65 129.01 9.65H116.935V43.85ZM162.208 53V0.499996H174.358V53H162.208ZM179.918 53L203.318 0.499996H215.318L238.793 53H226.043L206.843 6.65H211.643L192.368 53H179.918ZM191.618 41.75L194.843 32.525H221.843L225.143 41.75H191.618ZM239.024 53L262.424 0.499996H274.424L297.899 53H285.149L265.949 6.65H270.749L251.474 53H239.024ZM250.724 41.75L253.949 32.525H280.949L284.249 41.75H250.724Z" fill="black"/>
</svg>
